<svg width="36" height="36" viewBox="0 0 36 36" fill="none" xmlns="http://www.w3.org/2000/svg">
<g id="Icons">
<g id="Subtract">
<path d="M10.2207 8.80817L8.80762 10.2213L13.2929 14.7065L13 14.9995H9V20.9995H13L18 25.9995V19.4136L22.1922 23.6058C21.5401 24.0942 20.8 24.4715 20 24.7096V26.7764C21.3453 26.4712 22.5761 25.8646 23.6177 25.0314L25.7782 27.1918L27.1924 25.7776L27.1913 25.7766L27.1902 25.7776L10.2207 8.80817Z" fill="white"/>
<path d="M25.8817 22.3478C26.5944 21.0589 27 19.5766 27 17.9995C27 13.7163 24.008 10.132 20 9.22247V11.2894C22.8915 12.1499 25 14.8284 25 17.9995C25 19.0177 24.7826 19.9851 24.3917 20.8578L25.8817 22.3478Z" fill="white"/>
<path d="M22.4139 18.88C22.4704 18.5952 22.5 18.3008 22.5 17.9995C22.5 16.2326 21.4818 14.7036 20 13.9672V16.4661L22.4139 18.88Z" fill="white"/>
<path d="M18 14.4661V9.99945L15.7667 12.2328L18 14.4661Z" fill="white"/>
</g>
</g>
</svg>
