<svg width="36" height="36" viewBox="0 0 36 36" fill="none" xmlns="http://www.w3.org/2000/svg">
<path fill-rule="evenodd" clip-rule="evenodd" d="M11.8153 12.0477L14.2235 12.9602C14.6231 12.6567 15.0599 12.3996 15.5258 12.1971L15.9379 9.66561C16.5985 9.50273 17.2891 9.41632 18 9.41632C18.7109 9.41632 19.4016 9.50275 20.0622 9.66566L20.4676 12.1555C20.9584 12.3591 21.418 12.6227 21.8372 12.9372L24.1846 12.0477C25.1391 13.0392 25.8574 14.2597 26.249 15.6186L24.3196 17.1948C24.3531 17.4585 24.3704 17.7272 24.3704 18C24.3704 18.2727 24.3531 18.5415 24.3196 18.8051L26.249 20.3814C25.8574 21.7403 25.1391 22.9607 24.1846 23.9522L21.8372 23.0628C21.4179 23.3772 20.9584 23.6408 20.4676 23.8445L20.0622 26.3343C19.4016 26.4972 18.7109 26.5836 18 26.5836C17.2891 26.5836 16.5985 26.4972 15.9379 26.3344L15.5258 23.8029C15.0599 23.6003 14.6231 23.3433 14.2236 23.0398L11.8154 23.9523C10.8609 22.9608 10.1426 21.7404 9.75098 20.3815L11.7633 18.7375C11.7352 18.4955 11.7208 18.2495 11.7208 18C11.7208 17.7505 11.7352 17.5044 11.7633 17.2625L9.75098 15.6185C10.1426 14.2596 10.8609 13.0392 11.8153 12.0477ZM18 20.75C19.5188 20.75 20.75 19.5188 20.75 18C20.75 16.4812 19.5188 15.25 18 15.25C16.4812 15.25 15.25 16.4812 15.25 18C15.25 19.5188 16.4812 20.75 18 20.75Z" fill="white"/>
</svg>
